<?xml version="1.0" encoding="utf-8"?>
<!-- Generator: Adobe Illustrator 23.0.3, SVG Export Plug-In . SVG Version: 6.00 Build 0)  -->
<svg version="1.1" id="RÈteg_1" xmlns="http://www.w3.org/2000/svg" xmlns:xlink="http://www.w3.org/1999/xlink" x="0px" y="0px"
	 viewBox="0 0 425.2 425.2" style="enable-background:new 0 0 425.2 425.2;" xml:space="preserve">
<title>404</title>
<path d="M133,149.2c-25.3,4.5-46.4,37.2-41.6,64.4c1.7,9.6,6.6,17.8,15.9,21.4c-0.3,5.3-0.1,10.7,0.9,16
	c3.4,19.5,15.3,28.9,29.4,26.5c19.7-3.5,27.9-35.7,31.4-57.3c2.4-14.7,2.4-29.6-0.1-44.3C164.8,158.5,145.8,146.9,133,149.2z
	 M165.3,218.2v0.8l0,0C165.3,218.9,165.3,218.4,165.3,218.2L165.3,218.2z M163.6,209.5c0-0.1,0-0.2,0-0.4
	C163.6,209.2,163.6,209.3,163.6,209.5L163.6,209.5z M93.3,207.2c-0.4-14.4,5.4-28.8,17.7-43C100.8,178.2,95.1,192.5,93.3,207.2
	L93.3,207.2z M99.4,203.5c-0.9-4.9,4.6-17.5,5.3-18.7c0.5-0.9,4-7.4,5.3-7.6c-0.9,1.5-1.7,3-2.3,4.6c-2.8,5.9-5.2,12.1-7.1,18.4
	C100.4,201.3,100,202.4,99.4,203.5L99.4,203.5z M117.7,201.7c3.2-7.8,7.5-12.2,12.6-13.1c1.1-0.2,2.3-0.2,3.5-0.2
	C127.5,189.4,122,193.8,117.7,201.7L117.7,201.7z M131.7,269.1c-0.4,0.1-0.8,0.1-1.2,0c-3-0.3-5.4-3.9-6.6-10.3
	c-1-5.9-1.1-14.3,0.6-24.7c0.7-0.1,1.2,0,1.9-0.1c5.3-0.9,10.6-2.7,10.2-4.8c-0.4-2.3-4-5.6-5.1-5.3c-1.5,0.3-3.8,2.1-5.2,2.3
	c1.7-8.2,10.9-31.9,16.3-32.9c0.3-0.3,2-0.6,1.7-2.1c-0.1-0.2,0-0.4,0.1-0.6c-0.2-0.2-0.9-0.2-1-0.4c0-0.2,0.1-0.5,0.2-0.6
	c-1,0.2-3.6-1.8-3.5-1.8c-0.6-0.1-0.8-0.3-0.9-0.2l-0.6-0.1c-3.2-0.9-6.6-1.1-9.9-0.5c-10.9,1.9-16.3,22.6-18.7,34.1
	c-1.9-1.9-3.2-4.3-3.5-7c-3-17.2,17.1-49.4,33.4-52.2c7.5-1.3,12.8,3.2,14.9,14.7C159.9,205.1,145.5,266.6,131.7,269.1L131.7,269.1z
	 M145.8,253.5c6.1-14.2,10-33,11.9-56.1C157,222.7,153,241.4,145.8,253.5L145.8,253.5z M151.9,256.3c1.9-8.3,11.5-41.7,11.7-46.8
	c-0.1,4.6-6.3,35.6-9.9,43L151.9,256.3z M158.2,249.1c0-0.1-0.1,0-0.2,0.2c3-13.5,7.3-29,7.4-30.4v0.9
	C163.6,232.8,158.1,248.9,158.2,249.1L158.2,249.1z"/>
<path d="M266.7,189.7c-0.2-1.3-0.5-2.6-0.9-3.9c-1-3.6-6.4-12.4-12.2-11.4c-5.3,0.9-10.4,7.7-14.1,14.8c-1.4-4.2-9.3-7.8-11.8-7.4
	c-0.5,0.1-0.8,0.3-0.7,0.9c0.2,6.3-1.9,18.3-4.1,32c-2.1,4.8-3.3,9.1-6.2,12.3c1.7-7.5,1.9-15.3,0.7-22.9c-2-11.5-9.9-24.2-22.6-22
	c-10,1.8-16.9,14.3-14.7,27c0.1,0.9,0.4,1.8,0.6,2.7c-1.8-1.3-4-1.9-6.3-1.7c-3.7,0.7-2.6,19.2-1.9,23.1c2.1,11.9,10,23.6,23.2,21.3
	c7.6-1.4,13.7-8.1,17.6-17.2c2.6-1.1,4.9-2.8,6.8-4.9c-1.9,14.3-3,28.6-1.1,39.1s7.1,18.1,17.6,16.2c2.9-0.5,3.7-1.7,3.5-2.8
	c-0.4-1-1.3-1.5-2.4-1.4c-1.5-3.6-2.6-7.3-3.2-11.1c-1.9-10.5-1.4-22.9-0.3-36.4c4.1,5.1,10.2,9.9,16.1,8.9c1.9-0.4,3.7-1.4,5.1-2.7
	C262.5,236.3,270.1,209,266.7,189.7z M175.4,231.4c-1.3-7.4-0.3-15.7,0.5-15.8c0,0,0,0.8,0,2c-0.7,2.9-0.5,9.4,0.6,15.4
	c0.5,3.2,1.4,6.4,2.7,9.4C177.4,239.9,176.1,235.6,175.4,231.4z M194.6,243.9c-0.5,0.1-1.1,0.2-1.6,0.1c-3.5-1-5.9-4.6-6.8-9.5
	c-0.4-2.5-0.5-5.1-0.3-7.6c4.3,6.3,9.8,10.6,15.3,12.2C199.3,241.6,197.1,243.4,194.6,243.9z M204,231.4c-8.2-0.8-13-9-14.5-17.6
	c-1.8-10,0.8-20.5,7.6-21.7c4.9-0.9,7.6,3.3,8.8,9.9C207.5,211.6,205.9,225.6,204,231.4z M211.9,197.5c-0.8-3.5-6.4-9.6-10.1-10.5
	c4.9,0.1,10.1,7.7,10.8,11.4C212.6,198.6,212.1,197.9,211.9,197.5L211.9,197.5z M221.7,270.1c-0.6-3.1-0.9-16-0.2-16.1
	c0,0,0.1,0.4,0.2,1c0.1,6.4,0.7,12.9,1.8,19.2c0.2,0.9,1.5,5.1,1.7,5.5C223.6,276.7,222.4,273.5,221.7,270.1L221.7,270.1z
	 M238.7,202.5c1.7-7.3,3.2-12.5,6.7-17.5c-2.8,5.9-5.1,12-6.8,18.3C238.7,203,238.7,202.7,238.7,202.5L238.7,202.5z M244.3,234.3
	c-3.8-1.5-6.5-4.9-7-9c-0.3-2.4-0.3-4.8-0.1-7.2c1.7-0.5,3.3-1.4,3.3-2c0.6-5.4,3.9-26.5,13.1-34.2c0.4,0.1,0.6,0.5,0.8,1.5
	C255.8,191.6,248.6,233.8,244.3,234.3L244.3,234.3z M256.5,208c-0.1-0.4-0.1-0.8,0-1.2c0.5-5.9,2.5-16.6,1.4-22.6
	c-0.2-0.8-0.4-1.5-0.6-2.3c0.5-0.1,1.3,2.4,1.6,4.4C259.9,191.5,257.3,207.8,256.5,208z M261,205c-0.3-0.1-0.4-0.5-0.3-0.8
	c0.3-2.3,0.9-11.8,0.8-12.6c-0.1-1.1-0.1-2.2,0.1-3.3l0.3,1.8C262,190.5,262.5,203.5,261,205z"/>
<path d="M299.3,232.1c-4-8.8-10.5-21.5-12.4-32.5c-0.3-2-0.5-4-0.5-5.9c3-4.6,11.9-13,10.7-19.8c-0.1-0.6-0.2-1.2-0.5-1.7
	c1-2,1.4-4.2,1.1-6.4c-0.6-1.1-1.3-2-2.2-2.8l-0.7-0.1l-0.7,0.7c0.1-0.3,0.1-0.5,0-0.8c-0.1-0.3-0.4-0.6-0.8-0.5c0,0,0,0,0,0
	c-0.3-0.1-0.6-0.2-0.9-0.2c-4.9,0.9-18.7,16.2-20.4,27.8c-0.3,3.4-0.1,6.8,0.6,10.2c2,10.4,5.7,20.5,11,29.7
	c-4.9-2.1-10.1-8.3-14.2-10.8l-0.5-0.1c-2.3,1-2.7,4.7-2.1,7.8c0.8,4.5,7.8,12.1,12.9,14.4c2.5,1.2,7.5,1.7,11.9,0.9
	c4.9-0.9,9.1-3.2,8.3-7.7C299.7,233.5,299.5,232.8,299.3,232.1z M287.4,167.9c-5,6.1-9.2,12.8-12.6,20
	C276.9,180.1,281.3,173.1,287.4,167.9L287.4,167.9z M277.9,185.7c1.2-4.2,3.6-8,6.8-10.9C282.1,178.1,279.8,181.8,277.9,185.7z
	 M285.4,205.3c-0.2-1.2-0.3-2.6-0.5-3.8c2,9,5.3,17.6,9.6,25.7C289.8,220.8,286.7,213.2,285.4,205.3z"/>
<path d="M314,231.9c-1.6,0.3-3.1,1-4.2,2.1c-2.8,2.3-4.5,10.5-3.6,15.1c0.7,4.1,4.3,5.5,7.5,4.9c4.1-0.7,8.4-9.1,6.8-17.9
	C319.8,232.5,316.5,231.4,314,231.9z M307.5,242.5c0.5-4.1,2.9-8.6,6.2-9.6C311.1,235.8,308.9,239,307.5,242.5L307.5,242.5z"/>
<path d="M334.3,144.7c-0.8-4.7-5.3-8.1-8.9-7.5c-2.2,0.4-4.1,2.3-4.6,6.5c-3.5,25.6-6.6,51.1-9.7,77.3c0.7,3.7,5.4,5.9,7.8,5.5
	c2.9-0.5,5.5-20.3,6.9-27.6c3.2-16.9,6.2-34.1,8.5-51.3C334.5,146.6,334.5,145.6,334.3,144.7z M321.9,209.5
	c1.7-18.4,5.2-36.2,9.4-53.9C328.3,176,324.6,193.8,321.9,209.5L321.9,209.5z"/>
</svg>
