<svg id="shapes_creative_designs" data-name="shapes creative designs" xmlns="http://www.w3.org/2000/svg" viewBox="0 0 740.41 211.95"><defs><style>.cls-1{fill:#653d4b;}.cls-2{fill:#525252;}</style></defs><title>tantalizea-creative-designs-logo</title><path class="cls-1" d="M171.63,495.51l5.13-8.1c4.05-6.75,5.94-11.61,7.56-13.5,2.43-3,7.83-4.05,10-4.05,1.89,0,4.59.81,4.59,2.43,0,4.32-4.86,13.23-11.61,24,11.34-.54,16.2-2.7,17.82-2.7a2.57,2.57,0,0,1,2.16,2.16c0,1.35-9.72,4.32-23,4.86-18.36,28.08-48.06,67.24-48.06,81.28,0,3,1.89,4.59,3.51,4.59,4.86,0,29.16-16.2,47-30.25,1.89-1.34,2.43-1.88,3.24-1.88a1.16,1.16,0,0,1,1.08,1.08c0,.8-.27,1.34-1.89,2.7-19.71,15.92-44,34-54,34-5.94,0-12.15-6.21-12.15-11.61,0-13.24,29.16-55.9,45.36-80.2-14.85-.81-20-3.78-20-5.4,0-1.89,3.24-6.48,4.86-6.48C154.35,488.49,159.21,493.62,171.63,495.51Z" transform="translate(-123.03 -447.99)"/><path class="cls-1" d="M274.23,556.26c1.89-1.34,2.43-1.88,3.24-1.88a1.16,1.16,0,0,1,1.08,1.08c0,.8-.27,1.34-1.89,2.7-19.71,15.92-27.81,18.09-35.37,18.09-15.12,0-13.23-15.67-16.74-15.67-4.05,0-21.33,23.77-36.72,23.77-4.86,0-9.45-3.78-9.45-7.29,0-21.88,35.37-53.2,55.62-53.2a8.77,8.77,0,0,1,8.64,8.91c0,3.24-2.7,10.27-4.59,10.27-1.08,0-3.51-1.62-3.51-2.71,0-1.62,3.51-5.12,3.51-8.37,0-1.62-1.08-3-3.78-3-11.07,0-41.85,29.7-41.85,47.25,0,1.08.54,1.89,1.35,1.89,5.4,0,17.55-11.61,25.11-19.72,6.75-7.29,10-12.14,13.77-12.14,10.8,0,8.37,23.49,17,23.49C254,569.77,257,569.77,274.23,556.26Z" transform="translate(-123.03 -447.99)"/><path class="cls-1" d="M339,526.83c4.59,0,8.91,4,8.91,6.75,0,10-17,25.12-17,42.94,0,3,1.35,3.78,2.43,3.78,6.21,0,20.79-10,38.61-24,1.89-1.34,2.43-1.88,3.24-1.88a1.16,1.16,0,0,1,1.08,1.08c0,.8-.27,1.34-1.89,2.7-19.71,15.92-36.72,27.54-47.25,27.54-4.05,0-12.69-2.16-12.69-10.8,0-20.25,20.79-34.57,20.79-41.86a.58.58,0,0,0-.54-.54c-8.1,0-52.38,44.29-62.1,44.29-1.89,0-4.86-4.59-4.86-6.48,0-4.32,13.77-30.25,27.54-45.1C301,519,309.05,515,313.1,515a1.81,1.81,0,0,1,1.62,1.89c0,1.08-2.43,3-7.83,11.08s-14.58,27-16.47,32.66C294.74,557.34,328.49,526.83,339,526.83Z" transform="translate(-123.03 -447.99)"/><path class="cls-1" d="M410.3,495.51l5.13-8.1c4.05-6.75,5.94-11.61,7.56-13.5,2.43-3,7.83-4.05,10-4.05,1.89,0,4.59.81,4.59,2.43,0,4.32-4.86,13.23-11.61,24,11.34-.54,16.2-2.7,17.82-2.7a2.57,2.57,0,0,1,2.16,2.16c0,1.35-9.72,4.32-22.95,4.86-18.36,28.08-48.06,67.24-48.06,81.28,0,3,1.89,4.59,3.51,4.59,4.86,0,29.16-16.2,47-30.25,1.89-1.34,2.43-1.88,3.24-1.88a1.16,1.16,0,0,1,1.08,1.08c0,.8-.27,1.34-1.89,2.7-19.71,15.92-44,34-54,34-5.94,0-12.15-6.21-12.15-11.61,0-13.24,29.16-55.9,45.36-80.2-14.85-.81-20-3.78-20-5.4,0-1.89,3.24-6.48,4.86-6.48C393,488.49,397.88,493.62,410.3,495.51Z" transform="translate(-123.03 -447.99)"/><path class="cls-1" d="M512.9,556.26c1.89-1.34,2.43-1.88,3.24-1.88a1.16,1.16,0,0,1,1.08,1.08c0,.8-.27,1.34-1.89,2.7-19.71,15.92-27.81,18.09-35.37,18.09-15.12,0-13.23-15.67-16.74-15.67-4.05,0-21.33,23.77-36.72,23.77-4.86,0-9.45-3.78-9.45-7.29,0-21.88,35.37-53.2,55.62-53.2a8.77,8.77,0,0,1,8.64,8.91c0,3.24-2.7,10.27-4.59,10.27-1.08,0-3.51-1.62-3.51-2.71,0-1.62,3.51-5.12,3.51-8.37,0-1.62-1.08-3-3.78-3-11.07,0-41.85,29.7-41.85,47.25,0,1.08.54,1.89,1.35,1.89,5.4,0,17.55-11.61,25.11-19.72,6.75-7.29,10-12.14,13.77-12.14,10.8,0,8.37,23.49,17,23.49C492.65,569.77,495.62,569.77,512.9,556.26Z" transform="translate(-123.03 -447.99)"/><path class="cls-1" d="M571,556.26c1.89-1.34,2.43-1.88,3.24-1.88a1.16,1.16,0,0,1,1.08,1.08c0,.8-.27,1.34-1.89,2.7C559.07,570,535.85,585.7,522.62,585.7c-6.48,0-13.77-4.59-13.77-13.5C508.85,542,576.62,448,604.7,448c4,0,7.56,2.7,7.56,6.75,0,29.7-66.42,85-80.19,95-4.05,4.86-7.29,17-7.29,24.57,0,4.59,1.62,5.4,3.24,5.4C535,579.76,553.13,570.31,571,556.26Zm-35.64-15.12c24.84-20.79,70.47-66.42,70.47-84.51a2,2,0,0,0-2.16-2.16C594.44,454.47,546.92,519.54,535.31,541.14Z" transform="translate(-123.03 -447.99)"/><path class="cls-1" d="M616.31,556.26c1.89-1.34,2.43-1.88,3.24-1.88a1.16,1.16,0,0,1,1.08,1.08c0,.8-.27,1.34-1.89,2.7-19.71,15.92-32.67,23.22-41,23.22-5.94,0-11.61-3.51-11.61-10.8,0-15.66,26.73-47.26,33.75-47.26,4.59,0,7.56,1.89,7.56,3.24s-.27,1.9-2.7,4.59c-13,15.13-25.65,32.14-25.65,41.31,0,2.71,1.35,3.52,2.43,3.52C589.58,576,598.49,570.31,616.31,556.26Zm6.75-60.21c0,5.67-7,12.15-12.69,12.15-3.51,0-5.67-1.89-5.67-4.86,0-6.21,9.45-12.42,12.42-12.42C620.36,490.92,623.06,493.35,623.06,496.05Z" transform="translate(-123.03 -447.99)"/><path class="cls-1" d="M680.3,530.34c0,13.24-30.51,25.92-30.51,28.36,0,1.62,10.53,7.29,12.15,22.95,8.91-5.94,21.06-13.77,35.91-25.39,1.89-1.34,2.43-1.88,3.24-1.88a1.16,1.16,0,0,1,1.08,1.08c0,.8-.27,1.34-1.89,2.7-16.47,13.23-27.54,18.9-38.07,27.27V586c0,28.35-27.54,74-57.24,74-5.94,0-9.18-3.78-9.18-8.64,0-17.82,37.53-50.22,51.3-61.29v-.54c0-23-11.88-23-11.88-28.9,0-1.88,6.21-3.5,12.15-8.09,8.64-6.75,18.36-17,18.36-24.57a1.44,1.44,0,0,0-1.62-1.63c-4.05,0-24,15.13-46.17,32.41-1.35,1.08-1.89,1.34-2.43,1.34a1.27,1.27,0,0,1-1.35-1.34c0-.54.54-1.08,2.16-2.44,20.52-15.38,43.2-36.18,52.65-36.18C675.17,520.08,680.3,525.21,680.3,530.34Zm-33.75,64.54c-12.69,10-45.9,38.07-45.9,55.62,0,2.16,1.62,3,3.78,3C624.41,653.47,643.85,618.1,646.55,594.88Z" transform="translate(-123.03 -447.99)"/><path class="cls-1" d="M713.23,554.38a16.56,16.56,0,0,0-.27,3.78c0,7,4.59,11.88,13.77,11.88,7.83,0,15.39-.27,32.67-13.78,1.89-1.34,2.43-1.88,3.24-1.88a1.16,1.16,0,0,1,1.08,1.08c0,.8-.26,1.34-1.89,2.7-19.71,15.92-31.86,19.71-42.39,19.71-13.77,0-22.14-7.83-22.14-19.71,0-16.2,18.09-38.89,33.21-38.89,4.59,0,9.45,4.86,9.45,8.91C740,534.39,723.22,548.17,713.23,554.38Zm20.52-26.46a1.93,1.93,0,0,0-2.16-1.9c-6.21,0-17.55,17.56-17.55,23.49C715.93,548.71,733.75,533.58,733.75,527.92Z" transform="translate(-123.03 -447.99)"/><path class="cls-1" d="M846.88,556.26c1.89-1.34,2.43-1.88,3.24-1.88a1.16,1.16,0,0,1,1.09,1.08c0,.8-.28,1.34-1.9,2.7-19.71,15.92-27.81,18.09-35.37,18.09-15.12,0-13.23-15.67-16.74-15.67-4.05,0-21.33,23.77-36.72,23.77-4.86,0-9.45-3.78-9.45-7.29,0-21.88,35.37-53.2,55.62-53.2a8.77,8.77,0,0,1,8.64,8.91c0,3.24-2.7,10.27-4.59,10.27-1.08,0-3.51-1.62-3.51-2.71,0-1.62,3.51-5.12,3.51-8.37,0-1.62-1.08-3-3.78-3-11.07,0-41.85,29.7-41.85,47.25,0,1.08.54,1.89,1.35,1.89,5.4,0,17.55-11.61,25.11-19.72,6.75-7.29,10-12.14,13.77-12.14,10.8,0,8.37,23.49,17,23.49C826.63,569.77,829.6,569.77,846.88,556.26Z" transform="translate(-123.03 -447.99)"/><path class="cls-2" d="M379.94,618.71a7.48,7.48,0,0,0-5.95,2.5,10.15,10.15,0,0,0-2.18,6.87q0,4.49,2.1,6.93a7.48,7.48,0,0,0,6,2.45,20.57,20.57,0,0,0,5.45-.86v2.32a16.64,16.64,0,0,1-5.86.9c-3.37,0-6-1-7.79-3.07s-2.74-4.94-2.74-8.7a13.76,13.76,0,0,1,1.32-6.19,9.49,9.49,0,0,1,3.81-4.09,11.53,11.53,0,0,1,5.87-1.44,14.23,14.23,0,0,1,6.28,1.31l-1.13,2.28A12.07,12.07,0,0,0,379.94,618.71Z" transform="translate(-123.03 -447.99)"/><path class="cls-2" d="M401,630v9.5h-2.66V616.66h6.27q4.2,0,6.21,1.61a5.83,5.83,0,0,1,2,4.84q0,4.53-4.6,6.13l6.21,10.26H411.3l-5.53-9.5Zm0-2.28h3.64a6.27,6.27,0,0,0,4.13-1.12,4.16,4.16,0,0,0,1.31-3.35,3.8,3.8,0,0,0-1.34-3.26,7.21,7.21,0,0,0-4.29-1H401Z" transform="translate(-123.03 -447.99)"/><path class="cls-2" d="M438.86,639.5H426.12V616.66h12.74V619H428.78v7.36h9.47v2.34h-9.47v8.41h10.08Z" transform="translate(-123.03 -447.99)"/><path class="cls-2" d="M466.28,639.5l-2.84-7.26h-9.16l-2.81,7.26h-2.69l9-22.93h2.24l9,22.93Zm-3.67-9.65L460,622.77c-.34-.9-.7-2-1.06-3.3a31.48,31.48,0,0,1-1,3.3l-2.69,7.08Z" transform="translate(-123.03 -447.99)"/><path class="cls-2" d="M487.2,639.5h-2.65V619h-7.24v-2.36h17.13V619H487.2Z" transform="translate(-123.03 -447.99)"/><path class="cls-2" d="M505.87,639.5V616.66h2.66V639.5Z" transform="translate(-123.03 -447.99)"/><path class="cls-2" d="M535.84,616.66h2.86l-8.23,22.84h-2.63l-8.18-22.84h2.81l5.25,14.78a43.76,43.76,0,0,1,1.44,4.95,41.07,41.07,0,0,1,1.46-5Z" transform="translate(-123.03 -447.99)"/><path class="cls-2" d="M562.58,639.5H549.84V616.66h12.74V619H552.5v7.36H562v2.34H552.5v8.41h10.08Z" transform="translate(-123.03 -447.99)"/><path class="cls-2" d="M705.75,627.86c0,3.77-1,6.66-3.08,8.65s-5,3-8.83,3h-6.33V616.66h7q5.32,0,8.28,3T705.75,627.86Zm-2.82.1q0-4.47-2.24-6.74C699.2,619.71,697,619,694,619h-3.86v18.25h3.23q4.76,0,7.14-2.34C702.14,633.31,702.93,631,702.93,628Z" transform="translate(-123.03 -447.99)"/><path class="cls-2" d="M731.57,639.5H718.84V616.66h12.73V619H721.5v7.36H731v2.34H721.5v8.41h10.07Z" transform="translate(-123.03 -447.99)"/><path class="cls-2" d="M757.53,633.42a5.61,5.61,0,0,1-2.19,4.71,9.53,9.53,0,0,1-5.94,1.69,14.83,14.83,0,0,1-6.25-1.05v-2.56a16.33,16.33,0,0,0,3.06.93,16.14,16.14,0,0,0,3.29.35,6.64,6.64,0,0,0,4-1,3.32,3.32,0,0,0,1.34-2.81,3.58,3.58,0,0,0-.48-1.94,4.46,4.46,0,0,0-1.59-1.4,22.18,22.18,0,0,0-3.4-1.45,10.76,10.76,0,0,1-4.55-2.71,5.92,5.92,0,0,1-1.37-4.07,5.1,5.1,0,0,1,2-4.21,8.24,8.24,0,0,1,5.25-1.56,15.56,15.56,0,0,1,6.27,1.25l-.83,2.31a14.2,14.2,0,0,0-5.5-1.18,5.35,5.35,0,0,0-3.3.9,3,3,0,0,0-1.18,2.52,3.84,3.84,0,0,0,.43,1.94,4.08,4.08,0,0,0,1.48,1.39,17.51,17.51,0,0,0,3.18,1.4,12.66,12.66,0,0,1,4.94,2.75A5.37,5.37,0,0,1,757.53,633.42Z" transform="translate(-123.03 -447.99)"/><path class="cls-2" d="M770.2,639.5V616.66h2.65V639.5Z" transform="translate(-123.03 -447.99)"/><path class="cls-2" d="M797.17,627.53h7.76v11.11a24.62,24.62,0,0,1-3.68.88,27.83,27.83,0,0,1-4.35.3q-5.19,0-8.08-3.09c-1.92-2.06-2.89-4.94-2.89-8.65a13.12,13.12,0,0,1,1.43-6.24,9.68,9.68,0,0,1,4.12-4.09,13.25,13.25,0,0,1,6.3-1.42,17.34,17.34,0,0,1,6.81,1.34l-1,2.35a15.13,15.13,0,0,0-6-1.31,8.49,8.49,0,0,0-6.51,2.48,9.65,9.65,0,0,0-2.34,6.89c0,3.09.75,5.42,2.25,7s3.72,2.39,6.64,2.39a19.44,19.44,0,0,0,4.64-.55v-7h-5.11Z" transform="translate(-123.03 -447.99)"/><path class="cls-2" d="M836.26,639.5h-3l-12.48-19.17h-.13q.25,3.38.25,6.19v13h-2.45V616.66h3l12.45,19.09H834c0-.28-.07-1.18-.15-2.71s-.1-2.62-.07-3.27V616.66h2.48Z" transform="translate(-123.03 -447.99)"/><path class="cls-2" d="M863.43,633.42a5.63,5.63,0,0,1-2.18,4.71,9.53,9.53,0,0,1-5.94,1.69,14.83,14.83,0,0,1-6.25-1.05v-2.56a16.33,16.33,0,0,0,3.06.93,16,16,0,0,0,3.28.35,6.64,6.64,0,0,0,4-1,3.31,3.31,0,0,0,1.35-2.81,3.58,3.58,0,0,0-.48-1.94,4.41,4.41,0,0,0-1.6-1.4,21.55,21.55,0,0,0-3.39-1.45,10.74,10.74,0,0,1-4.56-2.71,6,6,0,0,1-1.37-4.07,5.11,5.11,0,0,1,2-4.21,8.24,8.24,0,0,1,5.25-1.56,15.48,15.48,0,0,1,6.26,1.25l-.82,2.31a14.2,14.2,0,0,0-5.5-1.18,5.35,5.35,0,0,0-3.3.9,3,3,0,0,0-1.19,2.52,3.84,3.84,0,0,0,.44,1.94,4,4,0,0,0,1.48,1.39,17.51,17.51,0,0,0,3.18,1.4,12.66,12.66,0,0,1,4.94,2.75A5.41,5.41,0,0,1,863.43,633.42Z" transform="translate(-123.03 -447.99)"/></svg>